HIERARCHY
ROOT Hips
{
	OFFSET -0.001795 -0.223333 0.028219
	CHANNELS 6 Xposition Yposition Zposition Zrotation Yrotation Xrotation 
	JOINT LeftUpLeg
	{
		OFFSET 0.069520 -0.091406 -0.006815
		CHANNELS 3 Zrotation Yrotation Xrotation
		JOINT LeftLeg
		{
			OFFSET 0.034277 -0.375199 -0.004496
			CHANNELS 3 Zrotation Yrotation Xrotation
			JOINT LeftFoot
			{
				OFFSET -0.013596 -0.397961 -0.043693
				CHANNELS 3 Zrotation Yrotation Xrotation
				JOINT LeftToe
				{
					OFFSET 0.026358 -0.055791 0.119288
					CHANNELS 3 Zrotation Yrotation Xrotation
					End Site
					{
						OFFSET 0.000000 0.000000 0.000000
					}
				}
			}
		}
	}
	JOINT RightUpLeg
	{
		OFFSET -0.067670 -0.090522 -0.004320
		CHANNELS 3 Zrotation Yrotation Xrotation
		JOINT RightLeg
		{
			OFFSET -0.038290 -0.382569 -0.008850
			CHANNELS 3 Zrotation Yrotation Xrotation
			JOINT RightFoot
			{
				OFFSET 0.015774 -0.398415 -0.042312
				CHANNELS 3 Zrotation Yrotation Xrotation
				JOINT RightToe
				{
					OFFSET -0.025372 -0.048144 0.123348
					CHANNELS 3 Zrotation Yrotation Xrotation
					End Site
					{
						OFFSET 0.000000 0.000000 0.000000
					}
				}
			}
		}
	}
	JOINT Spine
	{
		OFFSET -0.002533 0.108963 -0.026696
		CHANNELS 3 Zrotation Yrotation Xrotation
		JOINT Spine1
		{
			OFFSET 0.005487 0.135180 0.001092
			CHANNELS 3 Zrotation Yrotation Xrotation
			JOINT Spine2
			{
				OFFSET 0.001457 0.052922 0.025425
				CHANNELS 3 Zrotation Yrotation Xrotation
				JOINT Neck
				{
					OFFSET -0.002778 0.213870 -0.042857
					CHANNELS 3 Zrotation Yrotation Xrotation
					JOINT Head
					{
						OFFSET 0.005152 0.064970 0.051349
						CHANNELS 3 Zrotation Yrotation Xrotation
						End Site
						{
							OFFSET 0.000000 0.000000 0.000000
						}
					}
				}
				JOINT LeftShoulder
				{
					OFFSET 0.078845 0.121749 -0.034090
					CHANNELS 3 Zrotation Yrotation Xrotation
					JOINT LeftArm
					{
						OFFSET 0.090977 0.030469 -0.008868
						CHANNELS 3 Zrotation Yrotation Xrotation
						JOINT LeftForeArm
						{
							OFFSET 0.259612 -0.012772 -0.027456
							CHANNELS 3 Zrotation Yrotation Xrotation
							JOINT LeftHand
							{
								OFFSET 0.249234 0.008986 -0.001171
								CHANNELS 3 Zrotation Yrotation Xrotation
								End Site
								{
									OFFSET 0.000000 0.000000 0.000000
								}
							}
						}
					}
				}
				JOINT RightShoulder
				{
					OFFSET -0.081759 0.118833 -0.038615
					CHANNELS 3 Zrotation Yrotation Xrotation
					JOINT RightArm
					{
						OFFSET -0.096012 0.032551 -0.009143
						CHANNELS 3 Zrotation Yrotation Xrotation
						JOINT RightForeArm
						{
							OFFSET -0.253742 -0.013329 -0.021401
							CHANNELS 3 Zrotation Yrotation Xrotation
							JOINT RightHand
							{
								OFFSET -0.255298 0.007772 -0.005559
								CHANNELS 3 Zrotation Yrotation Xrotation
								End Site
								{
									OFFSET 0.000000 0.000000 0.000000
								}
							}
						}
					}
				}
			}
		}
	}
}
MOTION
Frames: 11
Frame Time: 0.050000
-0.645013 0.897832 1.084068 4.890115 -22.470777 -5.568259 -11.160461 -3.734952 -26.871310 -3.023875 4.417198 39.746528 2.223507 4.435886 -1.129175 0.000000 0.000000 0.000000 13.017543 4.166541 -18.143485 8.856972 3.147854 50.171684 -7.619477 -17.238464 -3.497554 0.000000 0.000000 0.000000 -6.094388 3.021862 32.696916 -2.891132 1.141890 -29.512174 -2.890637 24.470922 27.471908 13.486251 -2.024720 -38.403579 0.000000 0.000000 0.000000 -6.463028 -7.171794 1.538485 -2.341119 6.053573 -0.097699 9.718873 -1.353712 -0.185771 0.000000 0.000000 0.000000 -15.399862 14.114207 1.309472 -27.639446 31.376522 -5.085155 -10.282925 2.583009 0.085929 0.000000 0.000000 0.000000 
-0.742409 0.879469 1.103496 2.583104 -19.851786 -6.364510 -8.944391 -3.286242 -25.059069 -0.980830 3.471217 43.895973 3.257090 5.687307 -7.380279 0.000000 0.000000 0.000000 9.386078 5.310491 -24.647811 17.466183 -1.962723 56.268595 -12.087331 -29.212390 -5.458960 0.000000 0.000000 0.000000 -5.956412 3.149288 36.304295 -4.753962 1.488900 -29.029003 -4.240448 19.583655 26.363966 15.547024 -4.269868 -34.470273 0.000000 0.000000 0.000000 -2.276441 -6.711292 2.034907 2.117145 10.500352 0.943304 6.723118 5.483436 0.082029 0.000000 0.000000 0.000000 -13.856523 9.130303 0.914007 -28.184342 22.070525 -2.573789 -13.387271 0.047238 0.312312 0.000000 0.000000 0.000000 
-0.834898 0.869695 1.122538 1.778808 -18.956743 -7.323088 -4.616103 -2.240918 -22.279097 -1.521554 3.957024 45.873877 4.590705 8.129559 -13.497931 0.000000 0.000000 0.000000 4.117352 5.541131 -30.247552 19.437869 -3.599708 57.217643 -13.472247 -33.819316 -7.928815 0.000000 0.000000 0.000000 -7.309692 3.906230 38.953088 -3.818474 1.329422 -30.620431 -4.694552 16.529157 28.466807 16.839469 -5.791581 -33.191093 0.000000 0.000000 0.000000 -2.232308 -5.884170 1.877837 6.729387 14.784186 2.426256 4.016033 4.971080 -0.010126 0.000000 0.000000 0.000000 -9.841375 5.658333 0.765591 -27.923415 16.504963 -0.959823 -15.979236 -0.068177 0.311163 0.000000 0.000000 0.000000 
-0.924794 0.866454 1.141535 -1.264236 -18.617947 -6.475965 3.727237 -0.354905 -20.920431 -1.534852 3.939487 47.624153 4.545962 7.018804 -17.095863 0.000000 0.000000 0.000000 -0.351980 5.384955 -34.721167 19.158408 -3.797170 50.705146 -14.285814 -36.238082 -8.348029 0.000000 0.000000 0.000000 -7.210606 3.925849 40.303138 -4.443912 1.408458 -29.337216 -3.533493 13.738999 26.838559 17.126368 -6.634385 -31.211944 0.000000 0.000000 0.000000 0.927704 -4.153511 1.460195 5.711459 15.718913 2.281337 5.753671 4.579056 0.058337 0.000000 0.000000 0.000000 -5.658751 4.747430 1.127253 -24.451763 12.547815 -0.042070 -17.981668 0.758214 0.192889 0.000000 0.000000 0.000000 
-1.013749 0.870337 1.160281 -3.004952 -15.679463 -5.649719 9.594363 0.777957 -19.005946 -2.524837 3.318077 45.455493 3.764588 4.140692 -16.535509 0.000000 0.000000 0.000000 -6.328549 3.758217 -36.542225 16.328220 -3.165252 44.148427 -15.537422 -36.276403 0.289337 0.000000 0.000000 0.000000 -8.081982 3.813315 40.818547 -2.381299 0.991648 -28.651464 -3.213170 11.083648 27.392628 17.083348 -6.880981 -31.024882 0.000000 0.000000 0.000000 0.364484 -2.501799 0.877986 7.795399 15.018003 2.863815 5.817686 2.823337 0.039393 0.000000 0.000000 0.000000 -0.595817 4.973756 1.592548 -19.849628 12.739346 -0.261349 -22.301485 1.287914 0.060370 0.000000 0.000000 0.000000 
-1.101694 0.870939 1.178449 -4.898770 -15.457544 -3.860208 17.000036 2.354874 -17.883462 -4.414005 4.130320 45.164890 3.523292 3.462538 -15.427977 0.000000 0.000000 0.000000 -10.711316 2.770133 -38.481800 12.550637 -1.698202 37.910652 -14.636749 -32.560271 10.615555 0.000000 0.000000 0.000000 -7.754745 3.491430 40.039870 -2.812251 1.032411 -26.887055 -1.914756 11.105695 26.241164 15.400803 -6.035647 -29.724715 0.000000 0.000000 0.000000 2.643141 -3.665047 1.349191 6.384357 13.054582 2.275727 8.400918 1.383447 0.028436 0.000000 0.000000 0.000000 4.905474 5.265733 2.052571 -14.123658 13.934217 -0.630622 -24.554270 3.028098 -0.232303 0.000000 0.000000 0.000000 
-1.188902 0.867904 1.196446 -5.794080 -15.457653 -2.723590 21.559781 3.502971 -18.259258 -5.146699 4.618371 46.213834 3.488029 4.389266 -11.723500 0.000000 0.000000 0.000000 -13.774878 1.930268 -37.878661 7.797151 -0.057724 32.162714 -9.748060 -24.544259 17.963850 0.000000 0.000000 0.000000 -7.921279 3.477176 39.256283 -0.730733 0.564343 -26.803546 -1.963118 13.007322 26.319950 15.510129 -5.807975 -29.735765 0.000000 0.000000 0.000000 1.362291 -4.911794 1.717240 6.326583 7.801240 1.719522 14.281053 -1.167613 -0.256414 0.000000 0.000000 0.000000 11.908937 6.862697 3.505476 -10.303723 15.648446 -0.946353 -27.636924 7.122228 -1.140272 0.000000 0.000000 0.000000 
-1.274696 0.857606 1.212532 -6.001179 -13.767521 -1.299544 24.027589 4.440857 -21.728670 -1.527836 2.233375 49.758356 1.345614 -0.467553 -8.930916 0.000000 0.000000 0.000000 -17.578768 0.695866 -37.438417 3.465344 1.104083 29.445573 -1.717046 -13.150208 24.563263 0.000000 0.000000 0.000000 -7.410905 2.904031 38.399798 -0.081054 0.390290 -25.866460 -1.666847 13.247360 25.179462 15.104450 -5.274674 -29.971537 0.000000 0.000000 0.000000 -0.969983 -8.052538 2.646236 5.114426 1.496785 0.849658 18.975877 -5.094940 -0.982405 0.000000 0.000000 0.000000 20.408590 6.132964 4.198730 -5.275751 21.684950 -1.878340 -26.954443 10.766585 -1.795970 0.000000 0.000000 0.000000 
-1.356247 0.843788 1.224675 -6.583434 -13.066341 -0.411686 27.010600 5.567790 -23.816224 0.572846 0.800333 53.242299 1.682701 2.186761 -3.930692 0.000000 0.000000 0.000000 -18.649435 0.347589 -38.333731 3.768310 1.218979 33.564243 1.873988 -7.515899 24.522805 0.000000 0.000000 0.000000 -5.954496 2.292818 38.786414 0.551509 0.343353 -27.540545 -1.230968 11.845026 26.313388 13.924397 -5.141569 -28.929130 0.000000 0.000000 0.000000 -8.462306 -10.413655 3.482583 5.210589 -4.940569 0.215832 23.907407 -10.828473 -2.373727 0.000000 0.000000 0.000000 28.080198 9.318462 6.589005 2.072795 24.240008 -1.898973 -28.290374 16.831194 -3.253588 0.000000 0.000000 0.000000 
-1.430469 0.829138 1.230156 -6.184953 -12.289848 -0.607277 25.096896 5.546792 -27.343133 2.223333 -0.390121 58.663436 3.194678 4.845888 -6.141976 0.000000 0.000000 0.000000 -19.723156 -0.090060 -38.096930 8.052964 -0.378627 39.094452 1.803060 -5.025276 17.822267 0.000000 0.000000 0.000000 -3.971955 1.668372 41.816237 -0.921289 0.685627 -28.401398 -1.197496 9.814043 25.376802 13.978958 -4.813707 -31.757804 0.000000 0.000000 0.000000 -13.008032 -17.801961 7.054932 2.783018 -7.213673 -0.215167 28.094147 -16.507173 -4.082734 0.000000 0.000000 0.000000 34.900598 9.438474 6.632655 8.523381 25.911688 -1.455756 -26.757987 21.449542 -3.932532 0.000000 0.000000 0.000000 
-1.496342 0.817715 1.232485 -6.479910 -10.319624 -1.016213 23.822911 5.339239 -30.463921 -0.028791 0.663109 62.073793 3.974392 3.965547 -13.607655 0.000000 0.000000 0.000000 -20.532954 -0.713511 -38.745223 11.175900 -2.165735 45.515942 0.501579 -4.911367 12.309851 0.000000 0.000000 0.000000 -0.945311 0.218060 44.433066 -1.937052 0.905094 -28.017479 -2.793335 7.199146 24.136049 14.404169 -5.403496 -31.084513 0.000000 0.000000 0.000000 -16.226901 -22.582511 9.941652 1.334956 -14.214589 -0.879819 31.824211 -20.230474 -5.580247 0.000000 0.000000 0.000000 40.235596 11.204844 7.515683 16.493922 24.095929 -0.718615 -27.209635 25.248059 -4.726412 0.000000 0.000000 0.000000 
